<svg width="20" height="21" viewBox="0 0 20 21" fill="none" xmlns="http://www.w3.org/2000/svg">
<rect x="0.5" y="1" width="19" height="19" rx="1.5" fill="white" stroke="#EDEFF2"/>
<path d="M10 11.2292L6.35417 14.875C6.25 14.9792 6.12847 15.0312 5.98958 15.0312C5.85069 15.0312 5.72917 14.9792 5.625 14.875C5.52083 14.7708 5.46875 14.6493 5.46875 14.5104C5.46875 14.3715 5.52083 14.25 5.625 14.1458L9.27083 10.5L5.625 6.85417C5.52083 6.75 5.46875 6.62847 5.46875 6.48958C5.46875 6.35069 5.52083 6.22917 5.625 6.125C5.72917 6.02083 5.85069 5.96875 5.98958 5.96875C6.12847 5.96875 6.25 6.02083 6.35417 6.125L10 9.77083L13.6458 6.125C13.75 6.02083 13.8715 5.96875 14.0104 5.96875C14.1493 5.96875 14.2708 6.02083 14.375 6.125C14.4792 6.22917 14.5312 6.35069 14.5312 6.48958C14.5312 6.62847 14.4792 6.75 14.375 6.85417L10.7292 10.5L14.375 14.1458C14.4792 14.25 14.5312 14.3715 14.5312 14.5104C14.5312 14.6493 14.4792 14.7708 14.375 14.875C14.2708 14.9792 14.1493 15.0312 14.0104 15.0312C13.8715 15.0312 13.75 14.9792 13.6458 14.875L10 11.2292Z" fill="#A1ACAF"/>
</svg>
