<svg width="20" height="21" viewBox="0 0 20 21" fill="none" xmlns="http://www.w3.org/2000/svg">
<rect x="0.5" y="1" width="19" height="19" rx="1.5" fill="white" stroke="#EDEFF2"/>
<path d="M8.22765 14.3539C8.1582 14.3539 8.09455 14.3423 8.03668 14.3192C7.9788 14.296 7.92093 14.2555 7.86306 14.1976L4.7207 11.0553C4.61654 10.9511 4.56445 10.8238 4.56445 10.6733C4.56445 10.5229 4.61654 10.3956 4.7207 10.2914C4.82487 10.1872 4.9464 10.1351 5.08529 10.1351C5.22418 10.1351 5.3457 10.1872 5.44987 10.2914L8.22765 13.0692L14.5297 6.76709C14.6339 6.66292 14.7583 6.61084 14.903 6.61084C15.0477 6.61084 15.1721 6.66292 15.2763 6.76709C15.3804 6.87126 15.4325 6.99568 15.4325 7.14035C15.4325 7.28503 15.3804 7.40945 15.2763 7.51362L8.59223 14.1976C8.53436 14.2555 8.47649 14.296 8.41862 14.3192C8.36075 14.3423 8.29709 14.3539 8.22765 14.3539Z" fill="#A1ACAF"/>
</svg>
