<svg xmlns="http://www.w3.org/2000/svg" xmlns:xlink="http://www.w3.org/1999/xlink" viewBox="0,0,256,256" width="64px" height="64px" fill-rule="nonzero"><g fill="#ffffff" fill-rule="nonzero" stroke="none" stroke-width="1" stroke-linecap="butt" stroke-linejoin="miter" stroke-miterlimit="10" stroke-dasharray="" stroke-dashoffset="0" font-family="none" font-weight="none" font-size="none" text-anchor="none" style="mix-blend-mode: normal"><g transform="scale(3.55556,3.55556)"><path d="M43,12c-2.209,0 -4,1.791 -4,4c0,2.209 1.791,4 4,4h3.34375l-11.17187,11.17188c-1.562,1.562 -1.562,4.09425 0,5.65625c0.78,0.78 1.80512,1.17188 2.82813,1.17188c1.023,0 2.04812,-0.39187 2.82813,-1.17187l11.17188,-11.17187v3.34375c0,2.209 1.791,4 4,4c2.209,0 4,-1.791 4,-4v-13c0,-2.209 -1.791,-4 -4,-4zM23,14c-4.963,0 -9,4.038 -9,9v26c0,4.962 4.037,9 9,9h26c4.963,0 9,-4.038 9,-9v-8c0,-2.209 -1.791,-4 -4,-4c-2.209,0 -4,1.791 -4,4v8c0,0.551 -0.448,1 -1,1h-26c-0.552,0 -1,-0.449 -1,-1v-26c0,-0.551 0.448,-1 1,-1h8c2.209,0 4,-1.791 4,-4c0,-2.209 -1.791,-4 -4,-4z"></path></g></g></svg>