<svg width="24" height="24" viewBox="0 0 24 24" fill="none" xmlns="http://www.w3.org/2000/svg">
<path d="M21.4403 11.0528L12.2503 20.2428C11.1244 21.3687 9.59747 22.0012 8.00529 22.0012C6.41311 22.0012 4.88613 21.3687 3.76029 20.2428C2.63445 19.117 2.00195 17.59 2.00195 15.9978C2.00195 14.4057 2.63445 12.8787 3.76029 11.7528L12.9503 2.56285C13.7009 1.81229 14.7188 1.39062 15.7803 1.39062C16.8417 1.39063 17.8597 1.81229 18.6103 2.56285C19.3609 3.31341 19.7825 4.33139 19.7825 5.39285C19.7825 6.4543 19.3609 7.47229 18.6103 8.22285L9.41029 17.4128C9.03501 17.7881 8.52602 17.999 7.99529 17.999C7.46456 17.999 6.95557 17.7881 6.58029 17.4128C6.20501 17.0376 5.99418 16.5286 5.99418 15.9978C5.99418 15.4671 6.20501 14.9581 6.58029 14.5828L15.0703 6.10285" stroke="#FCFCFC" stroke-width="2" stroke-linecap="round" stroke-linejoin="round"/>
</svg>
