<svg width="514" height="16" viewBox="0 0 514 16" fill="none" xmlns="http://www.w3.org/2000/svg">
<line x1="8.74228e-08" y1="8" x2="512" y2="8.00004" stroke="#FCFCFC" stroke-width="2"/>
<line x1="1" y1="1" x2="0.999999" y2="15" stroke="#FCFCFC" stroke-width="2" stroke-linecap="round"/>
<path d="M16 4L16 12" stroke="#FCFCFC" stroke-linecap="round"/>
<path d="M32 4L32 12" stroke="#FCFCFC" stroke-linecap="round"/>
<path d="M48 4L48 12" stroke="#FCFCFC" stroke-linecap="round"/>
<path d="M64 4L64 12" stroke="#FCFCFC" stroke-linecap="round"/>
<path d="M80 4L80 12" stroke="#FCFCFC" stroke-linecap="round"/>
<path d="M96 4L96 12" stroke="#FCFCFC" stroke-linecap="round"/>
<path d="M112 4L112 12" stroke="#FCFCFC" stroke-linecap="round"/>
<path d="M128 4L128 12" stroke="#FCFCFC" stroke-linecap="round"/>
<path d="M144 4L144 12" stroke="#FCFCFC" stroke-linecap="round"/>
<path d="M160 4L160 12" stroke="#FCFCFC" stroke-linecap="round"/>
<path d="M176 4L176 12" stroke="#FCFCFC" stroke-linecap="round"/>
<path d="M192 4L192 12" stroke="#FCFCFC" stroke-linecap="round"/>
<path d="M208 4L208 12" stroke="#FCFCFC" stroke-linecap="round"/>
<path d="M224 4L224 12" stroke="#FCFCFC" stroke-linecap="round"/>
<path d="M240 4L240 12" stroke="#FCFCFC" stroke-linecap="round"/>
<path d="M256 4L256 12" stroke="#FCFCFC" stroke-linecap="round"/>
<path d="M272 4L272 12" stroke="#FCFCFC" stroke-linecap="round"/>
<path d="M288 4L288 12" stroke="#FCFCFC" stroke-linecap="round"/>
<path d="M304 4L304 12" stroke="#FCFCFC" stroke-linecap="round"/>
<path d="M320 4L320 12" stroke="#FCFCFC" stroke-linecap="round"/>
<path d="M336 4L336 12" stroke="#FCFCFC" stroke-linecap="round"/>
<path d="M352 4L352 12" stroke="#FCFCFC" stroke-linecap="round"/>
<path d="M368 4L368 12" stroke="#FCFCFC" stroke-linecap="round"/>
<path d="M384 4L384 12" stroke="#FCFCFC" stroke-linecap="round"/>
<path d="M400 4L400 12" stroke="#FCFCFC" stroke-linecap="round"/>
<path d="M416 4L416 12" stroke="#FCFCFC" stroke-linecap="round"/>
<path d="M432 4L432 12" stroke="#FCFCFC" stroke-linecap="round"/>
<path d="M448 4L448 12" stroke="#FCFCFC" stroke-linecap="round"/>
<path d="M464 4L464 12" stroke="#FCFCFC" stroke-linecap="round"/>
<path d="M480 4L480 12" stroke="#FCFCFC" stroke-linecap="round"/>
<path d="M496 4L496 12" stroke="#FCFCFC" stroke-linecap="round"/>
<line x1="513" y1="1" x2="513" y2="15" stroke="#FCFCFC" stroke-width="2" stroke-linecap="round"/>
</svg>
